<svg width="37" height="35" viewBox="0 0 37 35" fill="none" xmlns="http://www.w3.org/2000/svg">
<path d="M31.1667 0H5.5C4.04131 0 2.64236 0.579463 1.61091 1.61091C0.579463 2.64236 0 4.04131 0 5.5V33C0.000559821 33.3249 0.0874294 33.6437 0.251718 33.924C0.416006 34.2042 0.651812 34.4358 0.935 34.595C1.209 34.7503 1.51839 34.8324 1.83333 34.8333C2.16239 34.8332 2.48535 34.7446 2.76833 34.5767L11 29.59C11.3043 29.4089 11.6545 29.3197 12.0083 29.3333H31.1667C32.6254 29.3333 34.0243 28.7539 35.0558 27.7224C36.0872 26.691 36.6667 25.292 36.6667 23.8333V5.5C36.6667 4.04131 36.0872 2.64236 35.0558 1.61091C34.0243 0.579463 32.6254 0 31.1667 0ZM11 16.5C10.6374 16.5 10.2829 16.3925 9.98145 16.191C9.67997 15.9896 9.44498 15.7033 9.30622 15.3683C9.16746 15.0333 9.13115 14.6646 9.20189 14.309C9.27263 13.9534 9.44724 13.6267 9.70364 13.3703C9.96003 13.1139 10.2867 12.9393 10.6423 12.8686C10.998 12.7978 11.3666 12.8341 11.7016 12.9729C12.0366 13.1116 12.3229 13.3466 12.5244 13.6481C12.7258 13.9496 12.8333 14.3041 12.8333 14.6667C12.8333 15.1529 12.6402 15.6192 12.2964 15.963C11.9525 16.3068 11.4862 16.5 11 16.5ZM18.3333 16.5C17.9707 16.5 17.6163 16.3925 17.3148 16.191C17.0133 15.9896 16.7783 15.7033 16.6396 15.3683C16.5008 15.0333 16.4645 14.6646 16.5352 14.309C16.606 13.9534 16.7806 13.6267 17.037 13.3703C17.2934 13.1139 17.62 12.9393 17.9757 12.8686C18.3313 12.7978 18.6999 12.8341 19.0349 12.9729C19.3699 13.1116 19.6562 13.3466 19.8577 13.6481C20.0591 13.9496 20.1667 14.3041 20.1667 14.6667C20.1667 15.1529 19.9735 15.6192 19.6297 15.963C19.2859 16.3068 18.8196 16.5 18.3333 16.5ZM25.6667 16.5C25.3041 16.5 24.9496 16.3925 24.6481 16.191C24.3466 15.9896 24.1116 15.7033 23.9729 15.3683C23.8341 15.0333 23.7978 14.6646 23.8686 14.309C23.9393 13.9534 24.1139 13.6267 24.3703 13.3703C24.6267 13.1139 24.9534 12.9393 25.309 12.8686C25.6646 12.7978 26.0333 12.8341 26.3683 12.9729C26.7033 13.1116 26.9896 13.3466 27.191 13.6481C27.3925 13.9496 27.5 14.3041 27.5 14.6667C27.5 15.1529 27.3068 15.6192 26.963 15.963C26.6192 16.3068 26.1529 16.5 25.6667 16.5Z" fill="black"/>
</svg>
